<svg viewBox="0 0 80 80" fill="none" xmlns="http://www.w3.org/2000/svg"><path d="M62.081 75H14.927a1.089 1.089 0 01-1.09-1.09V6.09A1.089 1.089 0 0114.928 5h35.97l14.022 16v51.162A2.839 2.839 0 0162.081 75z" fill="#ED801D"/><path d="M59.243 75H13.838A2.838 2.838 0 0111 72.162V7.838A2.838 2.838 0 0113.838 5h37.226L62.08 18v54.162A2.839 2.839 0 0159.243 75z" fill="#FF962B"/><path d="M51.357 5v13.714A2.158 2.158 0 0053.358 21h11.561L51.357 5z" fill="#ED801D"/><path d="M42.69 15.878H20.932a1.419 1.419 0 100 2.838h21.756a1.419 1.419 0 100-2.838zM37.96 52.77H20.933a1.419 1.419 0 100 2.838H37.96a1.419 1.419 0 100-2.838zM54.04 25.338H20.934a1.419 1.419 0 000 2.838H54.04a1.419 1.419 0 100-2.838zM54.04 34.797H20.934a1.419 1.419 0 100 2.838H54.04a1.419 1.419 0 100-2.838zM51.203 44.257h-30.27a1.419 1.419 0 100 2.838h30.27a1.419 1.419 0 000-2.838z" fill="#fff"/><path d="M54.642 57.511h7.119l5.058 13.616a.842.842 0 01-.79 1.136h-5.321a.843.843 0 01-.79-.55l-5.276-14.202zM53.519 38.525h-1.45v.721h1.45v-.721zM60.398 38.525h-1.45v.721h1.45v-.721z" fill="#645959"/><path d="M57.797 39.98l1.566-1.145a1.6 1.6 0 012.44.72l.702 1.818a1.605 1.605 0 001.589 1.027l1.933-.112a1.613 1.613 0 011.665 1.935l-.385 1.91a1.62 1.62 0 00.784 1.729l1.687.957a1.622 1.622 0 01.362 2.534l-1.35 1.398a1.624 1.624 0 00-.27 1.881l.905 1.724a1.618 1.618 0 01-1.056 2.328l-1.887.44a1.613 1.613 0 00-1.236 1.437l-.165 1.942a1.606 1.606 0 01-2.14 1.384l-1.823-.655a1.599 1.599 0 00-1.812.535l-1.182 1.544a1.599 1.599 0 01-2.543 0L54.4 63.767a1.599 1.599 0 00-1.811-.535l-1.824.655a1.606 1.606 0 01-2.14-1.384l-.164-1.942a1.613 1.613 0 00-1.237-1.436l-1.886-.44a1.618 1.618 0 01-1.056-2.33l.904-1.723a1.624 1.624 0 00-.269-1.881l-1.35-1.397a1.623 1.623 0 01.362-2.534l1.686-.958a1.619 1.619 0 00.785-1.73l-.386-1.91a1.613 1.613 0 011.666-1.934l1.933.112a1.605 1.605 0 001.589-1.028l.701-1.816a1.6 1.6 0 012.44-.721l1.567 1.146a1.598 1.598 0 001.888 0zM53.047 71.714a.843.843 0 01-.79.55h1.367a.843.843 0 00.79-.55l1.446-3.893a1.58 1.58 0 01-1.161-.553l-1.652 4.446z" fill="#645959"/><path d="M47.512 71.127l1.96-5.275a1.593 1.593 0 01-1.23-.372l-2.096 5.647a.843.843 0 00.79 1.136h1.367a.843.843 0 01-.79-1.136z" fill="#796C6C"/><path d="M53.047 71.714l1.652-4.446c-.02-.023-.044-.04-.063-.065l-1.182-1.544a1.6 1.6 0 00-1.812-.535l-1.823.655a1.545 1.545 0 01-.347.073l-1.96 5.275a.844.844 0 00.79 1.136h3.955a.842.842 0 00.79-.55zM52.57 57.511h-1.367l-1.785 4.805h1.367l1.785-4.805zM55.264 62.316l-1.785-4.805h-.909l-1.785 4.805h4.48zM65.656 71.127l-2.095-5.639a1.582 1.582 0 01-1.566.291l-1.823-.655a1.6 1.6 0 00-1.812.535l-1.182 1.544c-.021.028-.049.048-.072.074l1.648 4.437a.843.843 0 00.79.55h5.322a.843.843 0 00.79-1.137zM62.384 62.316L60.6 57.511h-.909l-1.785 4.805h4.48zM56.538 62.316h1.367l1.785-4.805h-1.367l-1.785 4.805z" fill="#796C6C"/><path d="M58.322 57.511h-4.844l1.785 4.805h1.275l1.785-4.805z" fill="#796C6C"/><path d="M55.9 64.03l-1.202 3.238a1.582 1.582 0 001.162.553l.724-1.95-.683-1.84zM49.472 65.852l1.313-3.536H49.42l-1.176 3.164a1.593 1.593 0 001.229.372z" fill="#645959"/><path d="M50.785 62.316l-1.313 3.536c.118-.01.234-.035.347-.073l1.823-.655a1.599 1.599 0 011.812.535l1.181 1.544c.02.025.044.042.063.065l1.203-3.237-.637-1.715h-4.479zM58.36 65.659a1.6 1.6 0 011.812-.535l1.824.655a1.583 1.583 0 001.566-.29l-1.179-3.173h-4.479l-1.32 3.555.523 1.406c.023-.026.05-.046.071-.074l1.182-1.544z" fill="#645959"/><path d="M55.901 64.031l.683 1.84 1.321-3.555h-1.367l-.637 1.715zM55.264 62.316l.637 1.715.637-1.715h-1.274zM50.268 62.808h-1.175v1.175h1.175v-1.175z" fill="#645959"/><path d="M56.926 64.766H55.75v1.175h1.175v-1.175zM63.584 62.808H62.41v1.175h1.175v-1.175z" fill="#645959"/><path d="M56.518 39.98l1.566-1.145a1.6 1.6 0 012.44.72l.702 1.818a1.605 1.605 0 001.588 1.027l1.933-.112a1.613 1.613 0 011.666 1.935l-.385 1.91a1.62 1.62 0 00.784 1.729l1.686.957a1.622 1.622 0 01.362 2.534l-1.35 1.398a1.624 1.624 0 00-.269 1.881l.905 1.724a1.619 1.619 0 01-1.057 2.328l-1.886.441a1.612 1.612 0 00-1.236 1.436l-.165 1.942a1.605 1.605 0 01-2.14 1.385l-1.823-.656a1.6 1.6 0 00-1.812.535l-1.182 1.544a1.6 1.6 0 01-2.543 0l-1.182-1.544a1.599 1.599 0 00-1.812-.535l-1.823.656a1.605 1.605 0 01-2.14-1.385l-.165-1.942a1.613 1.613 0 00-1.236-1.436l-1.886-.44A1.618 1.618 0 0143 56.354l.904-1.723a1.624 1.624 0 00-.268-1.881l-1.35-1.397a1.623 1.623 0 01.362-2.534l1.686-.958a1.62 1.62 0 00.785-1.73l-.386-1.91a1.612 1.612 0 011.666-1.934l1.933.112a1.605 1.605 0 001.588-1.028l.702-1.816a1.601 1.601 0 012.44-.721l1.566 1.146a1.597 1.597 0 001.889 0z" fill="#796C6C"/><path d="M56.137 60.267a8.456 8.456 0 100-16.913 8.456 8.456 0 000 16.913z" fill="#fff"/><path d="M52.084 51.892l3.096 3.095 5.417-6.147" stroke="#645959" stroke-width="2.568" stroke-linecap="round" stroke-linejoin="round"/></svg>