<svg viewBox="0 0 80 80" fill="none" xmlns="http://www.w3.org/2000/svg"><g clip-path="url(#clip0)"><path d="M31.363 46h17.283c3.377 0 6.616 1.34 9.004 3.728a12.724 12.724 0 013.73 9l1.61 15.263A1.817 1.817 0 0161.17 76H18.83a1.822 1.822 0 01-1.74-1.255c-.08-.243-.107-.5-.08-.754l1.62-15.264c0-3.375 1.34-6.612 3.729-9A12.738 12.738 0 0131.363 46z" fill="#FF962B"/><path d="M55 59v17h3l-3-17z" fill="#ED801D"/><path d="M48.785 66.422l3.133.454a1.35 1.35 0 001.528-1.142l2.523-17.42a1.35 1.35 0 00-1.142-1.528l-3.133-.454a1.35 1.35 0 00-1.529 1.142l-2.522 17.42a1.35 1.35 0 001.142 1.528z" fill="#796C6C"/><path d="M40 8a19.14 19.14 0 0113.435 5.486A18.596 18.596 0 0159 26.73c0 3.784-1.525 7.414-4.24 10.09A14.583 14.583 0 0144.524 41h-9.048c-3.84 0-7.521-1.504-10.236-4.18A14.168 14.168 0 0121 26.73c0-4.968 2.002-9.732 5.565-13.244A19.14 19.14 0 0140 8z" fill="#FF962B"/><path d="M33 46h13v3.556a4.35 4.35 0 01-1.36 3.142A4.75 4.75 0 0141.357 54h-3.714a4.75 4.75 0 01-3.283-1.302A4.35 4.35 0 0133 49.556V46z" fill="#fff" stroke="#796C6C" stroke-width="2" stroke-miterlimit="10"/><path d="M55 76H25V56s9.14 3.704 14.625 3.704c6.801 0 15.348-3.136 15.348-3.136L55 76z" fill="#796C6C"/><path d="M34 43h11v5.333c0 .708-.29 1.386-.806 1.886-.515.5-1.215.781-1.944.781h-5.5c-.73 0-1.429-.281-1.944-.781A2.626 2.626 0 0134 48.333V43z" fill="#F1F1F1"/><path d="M39.486 49a14.436 14.436 0 01-10.243-4.273A14.64 14.64 0 0125 34.412v-7.677a24.401 24.401 0 0010.63-2.8A43.28 43.28 0 0043.523 18s2.39 4.267 4.392 5.927A17.682 17.682 0 0054 27.044v7.294a14.677 14.677 0 01-1.085 5.611 14.595 14.595 0 01-3.142 4.761 14.48 14.48 0 01-4.718 3.18A14.4 14.4 0 0139.486 49z" fill="#fff" stroke="#FF962B" stroke-width="1.5" stroke-miterlimit="10"/><path d="M28.41 46.332l-3.133.454a1.35 1.35 0 00-1.142 1.528l2.522 17.42a1.35 1.35 0 001.529 1.142l3.133-.454a1.349 1.349 0 001.142-1.528l-2.523-17.42a1.35 1.35 0 00-1.528-1.142z" fill="#796C6C"/><path d="M43 40c-.835.623-1.9.977-3.012 1-1.11.001-2.178-.356-2.988-1" stroke="#645959" stroke-width="1.5" stroke-miterlimit="10" stroke-linecap="round"/><path d="M36 30.656c0-.914-.672-1.656-1.5-1.656s-1.5.742-1.5 1.656v.688c0 .914.672 1.656 1.5 1.656s1.5-.742 1.5-1.656v-.688zM47 30.656c0-.914-.672-1.656-1.5-1.656s-1.5.742-1.5 1.656v.688c0 .914.672 1.656 1.5 1.656s1.5-.742 1.5-1.656v-.688z" fill="#645959"/><path d="M49.111 63H42.89c-.491 0-.889.448-.889 1v2c0 .552.398 1 .889 1h6.222c.491 0 .889-.448.889-1v-2c0-.552-.398-1-.889-1z" fill="#fff"/><path d="M51 13.941c-.062 5.63-8.739 1.918-9.533 2.12-5.29 1.602-10.528 4.067-10.466-1.573.061-5.64 4.585-10.33 10.087-10.484C46.591 3.85 51.052 8.349 51 13.94z" fill="#FF962B"/><path d="M53 28.034l-.07 7.7C52.93 42.49 46.818 48 39.275 48c-.428 0-.873 0-1.275-.061 6.941-.578 12.372-5.809 12.372-12.178V27c.41.226.833.427 1.266.605.35.06 1.362.429 1.362.429z" fill="#F1F1F1"/><path d="M25 59v17h-2l2-17z" fill="#ED801D"/></g><defs><clipPath id="clip0"><path fill="#fff" d="M0 0h80v80H0z"/></clipPath></defs></svg>