<svg xmlns="http://www.w3.org/2000/svg" viewBox="0 0 80 80"><path d="M59.674 5H23.788a5.326 5.326 0 00-5.326 5.326v59.348A5.326 5.326 0 0023.788 75h35.886A5.326 5.326 0 0065 69.674V10.326A5.326 5.326 0 0059.674 5z" fill="#ED801D"/><path d="M56.754 5H21.246A5.246 5.246 0 0016 10.246v59.508A5.246 5.246 0 0021.246 75h35.508A5.246 5.246 0 0062 69.754V10.246A5.246 5.246 0 0056.754 5z" fill="#FF962B"/><path d="M55.302 10H24.75A2.75 2.75 0 0022 12.75V66.48a2.75 2.75 0 002.75 2.75h30.552a2.75 2.75 0 002.75-2.75V12.75a2.75 2.75 0 00-2.75-2.75z" fill="#F1F1F1"/><path d="M55.37 10H27.63A2.63 2.63 0 0025 12.63V66.6a2.63 2.63 0 002.63 2.63h27.74A2.63 2.63 0 0058 66.6V12.63A2.63 2.63 0 0055.37 10z" fill="#fff"/><path d="M31 9h19v2.146A2.853 2.853 0 0147.146 14H33.854A2.853 2.853 0 0131 11.146V9z" fill="#FF962B"/><path d="M53.682 35H29.317C28.59 35 28 35.59 28 36.318v.364c0 .728.59 1.318 1.317 1.318h24.365C54.41 38 55 37.41 55 36.682v-.364C55 35.59 54.41 35 53.682 35zM47.838 41H29.162C28.52 41 28 41.52 28 42.162v.676c0 .642.52 1.162 1.162 1.162h18.676C48.48 44 49 43.48 49 42.838v-.676C49 41.52 48.48 41 47.838 41zM50.758 47H29.242c-.686 0-1.242.556-1.242 1.242v.516c0 .686.556 1.242 1.242 1.242h21.516c.686 0 1.242-.556 1.242-1.242v-.516c0-.686-.556-1.242-1.242-1.242zM41.051 53H28.95a.949.949 0 00-.949.949v1.102c0 .524.425.949.949.949H41.05a.949.949 0 00.949-.949V53.95a.949.949 0 00-.949-.949z" fill="#796C6C"/><path d="M39.419 23.34l-2.768-.402-1.238-2.508a.661.661 0 00-.489-.362v-.016h-1.137v.395h.401l-1.23 2.491-2.767.402a.677.677 0 00-.376 1.157l2.003 1.952-.473 2.757a.664.664 0 00.015.276h-.441V30h1.107v-.006a.664.664 0 00.303-.073l2.476-1.302 1.763.927V30h1.107v-.007a.675.675 0 00.59-.787l-.474-2.757 2.003-1.952a.678.678 0 00-.375-1.157z" fill="#645959"/><path d="M34.395 20.43l1.238 2.508 2.768.402a.677.677 0 01.376 1.157l-2.003 1.952.473 2.757a.678.678 0 01-.984.715l-2.476-1.302-2.476 1.302a.679.679 0 01-.983-.715l.473-2.757-2.003-1.952a.677.677 0 01.375-1.157l2.768-.402 1.238-2.508a.677.677 0 011.216 0z" fill="#796C6C"/><path d="M45.878 26.967h-.6V28h-1.03v-1.033h-2.129v-.734l2.187-3.22h.972v3.135h.6v.819zm-1.63-.819v-.846c0-.14.005-.346.017-.613a7.32 7.32 0 01.027-.468h-.027c-.086.19-.188.372-.304.546l-.914 1.381h1.2zM47.553 27.267c-.155.56-.356 1.106-.6 1.633h-.75a19.75 19.75 0 00.344-1.711h.955l.05.078zM48.787 28l1.872-4.093H48.2v-.887h3.578v.662L49.892 28h-1.105z" fill="#645959"/></svg>